<svg width="40" height="40" viewBox="0 0 40 40" fill="none" xmlns="http://www.w3.org/2000/svg">
<path fill-rule="evenodd" clip-rule="evenodd" d="M26.25 8.75C26.25 7.0924 25.5915 5.50269 24.4194 4.33058C23.2473 3.15848 21.6576 2.5 20 2.5C18.3424 2.5 16.7527 3.15848 15.5806 4.33058C14.4085 5.50269 13.75 7.0924 13.75 8.75V10H26.25V8.75ZM28.75 8.75V10H37.5V35C37.5 36.3261 36.9732 37.5979 36.0355 38.5355C35.0979 39.4732 33.8261 40 32.5 40H7.5C6.17392 40 4.90215 39.4732 3.96447 38.5355C3.02678 37.5979 2.5 36.3261 2.5 35V10H11.25V8.75C11.25 6.42936 12.1719 4.20376 13.8128 2.56282C15.4538 0.921872 17.6794 0 20 0C22.3206 0 24.5462 0.921872 26.1872 2.56282C27.8281 4.20376 28.75 6.42936 28.75 8.75ZM21.25 20C21.25 19.6685 21.1183 19.3505 20.8839 19.1161C20.6495 18.8817 20.3315 18.75 20 18.75C19.6685 18.75 19.3505 18.8817 19.1161 19.1161C18.8817 19.3505 18.75 19.6685 18.75 20V23.75H15C14.6685 23.75 14.3505 23.8817 14.1161 24.1161C13.8817 24.3505 13.75 24.6685 13.75 25C13.75 25.3315 13.8817 25.6495 14.1161 25.8839C14.3505 26.1183 14.6685 26.25 15 26.25H18.75V30C18.75 30.3315 18.8817 30.6495 19.1161 30.8839C19.3505 31.1183 19.6685 31.25 20 31.25C20.3315 31.25 20.6495 31.1183 20.8839 30.8839C21.1183 30.6495 21.25 30.3315 21.25 30V26.25H25C25.3315 26.25 25.6495 26.1183 25.8839 25.8839C26.1183 25.6495 26.25 25.3315 26.25 25C26.25 24.6685 26.1183 24.3505 25.8839 24.1161C25.6495 23.8817 25.3315 23.75 25 23.75H21.25V20Z" fill="white"/>
</svg>
