<svg width="40" height="40" viewBox="0 0 40 40" fill="none" xmlns="http://www.w3.org/2000/svg">
<g clip-path="url(#clip0_161_64)">
<path d="M1.25 2.5C0.918479 2.5 0.600537 2.6317 0.366117 2.86612C0.131696 3.10054 0 3.41848 0 3.75C0 4.08152 0.131696 4.39946 0.366117 4.63388C0.600537 4.8683 0.918479 5 1.25 5H4.025L5.0275 9.0175L8.7725 28.98C8.82612 29.2664 8.97814 29.5252 9.20228 29.7114C9.42641 29.8976 9.70858 29.9997 10 30H12.5C11.1739 30 9.90215 30.5268 8.96447 31.4645C8.02678 32.4021 7.5 33.6739 7.5 35C7.5 36.3261 8.02678 37.5979 8.96447 38.5355C9.90215 39.4732 11.1739 40 12.5 40C13.8261 40 15.0979 39.4732 16.0355 38.5355C16.9732 37.5979 17.5 36.3261 17.5 35C17.5 33.6739 16.9732 32.4021 16.0355 31.4645C15.0979 30.5268 13.8261 30 12.5 30H30C28.6739 30 27.4021 30.5268 26.4645 31.4645C25.5268 32.4021 25 33.6739 25 35C25 36.3261 25.5268 37.5979 26.4645 38.5355C27.4021 39.4732 28.6739 40 30 40C31.3261 40 32.5979 39.4732 33.5355 38.5355C34.4732 37.5979 35 36.3261 35 35C35 33.6739 34.4732 32.4021 33.5355 31.4645C32.5979 30.5268 31.3261 30 30 30H32.5C32.7914 29.9997 33.0736 29.8976 33.2977 29.7114C33.5219 29.5252 33.6739 29.2664 33.7275 28.98L37.4775 8.98C37.5113 8.79959 37.5049 8.61396 37.4588 8.43629C37.4128 8.25863 37.3282 8.09328 37.211 7.95201C37.0938 7.81074 36.947 7.697 36.7809 7.61888C36.6148 7.54076 36.4335 7.50017 36.25 7.5H7.225L6.2125 3.4475C6.14502 3.17696 5.98903 2.93675 5.76933 2.76506C5.54963 2.59338 5.27883 2.50008 5 2.5H1.25ZM11.0375 27.5L7.755 10H34.745L31.4625 27.5H11.0375ZM15 35C15 35.663 14.7366 36.2989 14.2678 36.7678C13.7989 37.2366 13.163 37.5 12.5 37.5C11.837 37.5 11.2011 37.2366 10.7322 36.7678C10.2634 36.2989 10 35.663 10 35C10 34.337 10.2634 33.7011 10.7322 33.2322C11.2011 32.7634 11.837 32.5 12.5 32.5C13.163 32.5 13.7989 32.7634 14.2678 33.2322C14.7366 33.7011 15 34.337 15 35ZM32.5 35C32.5 35.663 32.2366 36.2989 31.7678 36.7678C31.2989 37.2366 30.663 37.5 30 37.5C29.337 37.5 28.7011 37.2366 28.2322 36.7678C27.7634 36.2989 27.5 35.663 27.5 35C27.5 34.337 27.7634 33.7011 28.2322 33.2322C28.7011 32.7634 29.337 32.5 30 32.5C30.663 32.5 31.2989 32.7634 31.7678 33.2322C32.2366 33.7011 32.5 34.337 32.5 35Z" fill="white"/>
<path d="M18.9497 22.2746C20.106 23.1219 21.5395 23.5013 22.9636 23.3371C24.3877 23.1729 25.6972 22.4771 26.6302 21.389C27.5633 20.3008 28.051 18.9006 27.9958 17.4683C27.9406 16.0361 27.3466 14.6775 26.3326 13.6643C25.3185 12.6512 23.9593 12.0582 22.5269 12.0041C21.0944 11.9499 19.6942 12.4385 18.6066 13.3722C17.519 14.3059 16.824 15.6158 16.6608 17.0397C16.4976 18.4637 16.8781 19.8968 17.7263 21.0523V21.0514C17.6913 21.0771 17.6578 21.1057 17.6257 21.1372L14.2566 24.5058C14.0924 24.6699 14.0001 24.8924 14 25.1245C13.9999 25.3566 14.0921 25.5793 14.2561 25.7435C14.4202 25.9076 14.6428 25.9999 14.875 26C15.1071 26.0001 15.3298 25.908 15.494 25.7439L18.8631 22.3753C18.8947 22.344 18.9231 22.3104 18.9497 22.2746ZM22.3135 22.5004C21.6815 22.5004 21.0556 22.3759 20.4717 22.1341C19.8877 21.8922 19.3572 21.5378 18.9102 21.0909C18.4633 20.644 18.1088 20.1135 17.8669 19.5297C17.625 18.9458 17.5005 18.32 17.5005 17.6881C17.5005 17.0561 17.625 16.4303 17.8669 15.8465C18.1088 15.2626 18.4633 14.7321 18.9102 14.2852C19.3572 13.8384 19.8877 13.4839 20.4717 13.2421C21.0556 13.0002 21.6815 12.8758 22.3135 12.8758C23.59 12.8758 24.8142 13.3828 25.7168 14.2852C26.6194 15.1877 27.1265 16.4118 27.1265 17.6881C27.1265 18.9644 26.6194 20.1884 25.7168 21.0909C24.8142 21.9934 23.59 22.5004 22.3135 22.5004Z" fill="white"/>
</g>
<defs>
<clipPath id="clip0_161_64">
<rect width="40" height="40" fill="white"/>
</clipPath>
</defs>
</svg>
