<svg width="40" height="40" viewBox="0 0 40 40" fill="none" xmlns="http://www.w3.org/2000/svg">
<path fill-rule="evenodd" clip-rule="evenodd" d="M26.25 8.75C26.25 7.0924 25.5915 5.50269 24.4194 4.33058C23.2473 3.15848 21.6576 2.5 20 2.5C18.3424 2.5 16.7527 3.15848 15.5806 4.33058C14.4085 5.50269 13.75 7.0924 13.75 8.75V10H26.25V8.75ZM28.75 8.75V10H37.5V35C37.5 36.3261 36.9732 37.5979 36.0355 38.5355C35.0979 39.4732 33.8261 40 32.5 40H7.5C6.17392 40 4.90215 39.4732 3.96447 38.5355C3.02678 37.5979 2.5 36.3261 2.5 35V10H11.25V8.75C11.25 6.42936 12.1719 4.20376 13.8128 2.56282C15.4538 0.921872 17.6794 0 20 0C22.3206 0 24.5462 0.921872 26.1872 2.56282C27.8281 4.20376 28.75 6.42936 28.75 8.75ZM27.135 22.135C27.3697 21.9003 27.5016 21.5819 27.5016 21.25C27.5016 20.9181 27.3697 20.5997 27.135 20.365C26.9003 20.1303 26.5819 19.9984 26.25 19.9984C25.9181 19.9984 25.5997 20.1303 25.365 20.365L18.75 26.9825L15.885 24.115C15.7688 23.9988 15.6308 23.9066 15.479 23.8437C15.3271 23.7808 15.1644 23.7484 15 23.7484C14.8356 23.7484 14.6729 23.7808 14.521 23.8437C14.3692 23.9066 14.2312 23.9988 14.115 24.115C13.9988 24.2312 13.9066 24.3692 13.8437 24.521C13.7808 24.6729 13.7484 24.8356 13.7484 25C13.7484 25.1644 13.7808 25.3271 13.8437 25.479C13.9066 25.6308 13.9988 25.7688 14.115 25.885L17.865 29.635C17.9811 29.7514 18.1191 29.8438 18.2709 29.9068C18.4228 29.9698 18.5856 30.0022 18.75 30.0022C18.9144 30.0022 19.0772 29.9698 19.2291 29.9068C19.3809 29.8438 19.5189 29.7514 19.635 29.635L27.135 22.135Z" fill="white"/>
</svg>
