<svg width="40" height="40" viewBox="0 0 40 40" fill="none" xmlns="http://www.w3.org/2000/svg">
<path fill-rule="evenodd" clip-rule="evenodd" d="M26.25 8.75C26.25 7.0924 25.5915 5.50269 24.4194 4.33058C23.2473 3.15848 21.6576 2.5 20 2.5C18.3424 2.5 16.7527 3.15848 15.5806 4.33058C14.4085 5.50269 13.75 7.0924 13.75 8.75V10H26.25V8.75ZM28.75 8.75V10H37.5V35C37.5 36.3261 36.9732 37.5979 36.0355 38.5355C35.0979 39.4732 33.8261 40 32.5 40H7.5C6.17392 40 4.90215 39.4732 3.96447 38.5355C3.02678 37.5979 2.5 36.3261 2.5 35V10H11.25V8.75C11.25 6.42936 12.1719 4.20376 13.8128 2.56282C15.4538 0.921872 17.6794 0 20 0C22.3206 0 24.5462 0.921872 26.1872 2.56282C27.8281 4.20376 28.75 6.42936 28.75 8.75ZM17.135 20.365C17.0188 20.2488 16.8808 20.1566 16.729 20.0937C16.5771 20.0308 16.4144 19.9984 16.25 19.9984C16.0856 19.9984 15.9229 20.0308 15.771 20.0937C15.6192 20.1566 15.4812 20.2488 15.365 20.365C15.2488 20.4812 15.1566 20.6192 15.0937 20.771C15.0308 20.9229 14.9984 21.0856 14.9984 21.25C14.9984 21.4144 15.0308 21.5771 15.0937 21.729C15.1566 21.8808 15.2488 22.0188 15.365 22.135L18.2325 25L15.365 27.865C15.1303 28.0997 14.9984 28.4181 14.9984 28.75C14.9984 29.0819 15.1303 29.4003 15.365 29.635C15.5997 29.8697 15.9181 30.0016 16.25 30.0016C16.5819 30.0016 16.9003 29.8697 17.135 29.635L20 26.7675L22.865 29.635C23.0997 29.8697 23.4181 30.0016 23.75 30.0016C24.0819 30.0016 24.4003 29.8697 24.635 29.635C24.8697 29.4003 25.0016 29.0819 25.0016 28.75C25.0016 28.4181 24.8697 28.0997 24.635 27.865L21.7675 25L24.635 22.135C24.8697 21.9003 25.0016 21.5819 25.0016 21.25C25.0016 20.9181 24.8697 20.5997 24.635 20.365C24.4003 20.1303 24.0819 19.9984 23.75 19.9984C23.4181 19.9984 23.0997 20.1303 22.865 20.365L20 23.2325L17.135 20.365Z" fill="white"/>
</svg>
